<?xml version="1.0" encoding="utf-8"?>
<!-- Generator: Adobe Illustrator 25.0.0, SVG Export Plug-In . SVG Version: 6.00 Build 0)  -->
<svg version="1.1" id="Layer_1" xmlns="http://www.w3.org/2000/svg" xmlns:xlink="http://www.w3.org/1999/xlink" x="0px" y="0px"
	 viewBox="0 0 792.11 792" style="enable-background:new 0 0 792.11 792;" xml:space="preserve">
<style type="text/css">
	.st0{opacity:0.8;fill:url(#SVGID_1_);}
	.st1{opacity:0.8;fill:url(#SVGID_2_);}
	.st2{fill:url(#SVGID_3_);}
	.st3{fill:#E79F2E;}
	.st4{opacity:0.8;}
	.st5{fill:url(#SVGID_4_);}
	.st6{fill:url(#SVGID_5_);}
	.st7{fill:url(#SVGID_6_);}
	.st8{opacity:0.8;fill:url(#SVGID_7_);}
</style>
<g id="Go_to_Web_-_Orange">
	<g>
		<linearGradient id="SVGID_1_" gradientUnits="userSpaceOnUse" x1="499.6877" y1="592.4124" x2="499.6877" y2="225.877">
			<stop  offset="0" style="stop-color:#FFFFFF"/>
			<stop  offset="1" style="stop-color:#FBAE17"/>
		</linearGradient>
		<polygon class="st0" points="430.73,391.36 430.73,575.85 478.2,528.39 512.69,594.87 537.72,581.9 504.52,517.92 568.64,517.92 
					"/>
		<linearGradient id="SVGID_2_" gradientUnits="userSpaceOnUse" x1="401.4127" y1="592.413" x2="401.4127" y2="225.8765">
			<stop  offset="0" style="stop-color:#FFFFFF"/>
			<stop  offset="1" style="stop-color:#FBAE17"/>
		</linearGradient>
		<path class="st1" d="M572.65,425.28c0.34-2.43,0.76-4.83,0.99-7.28c0.55-5.53,0.89-11.12,0.89-16.78c0-5.52-0.31-10.97-0.82-16.36
			c-0.27-2.85-0.75-5.63-1.15-8.44c-0.29-1.98-0.45-4-0.81-5.96c-0.03-0.02-0.07-0.04-0.11-0.05
			C558.89,299.54,503.11,243.77,432.25,231c-0.02-0.03-0.04-0.08-0.06-0.13c-2.26-0.4-4.59-0.61-6.87-0.93
			c-2.49-0.35-4.95-0.77-7.48-1c-5.4-0.53-10.87-0.84-16.42-0.84c-5.55,0-11.02,0.31-16.42,0.84c-2.54,0.23-4.99,0.65-7.48,1
			c-2.29,0.32-4.61,0.53-6.87,0.93c-0.02,0.04-0.05,0.08-0.07,0.13c-70.85,12.76-126.64,68.54-139.39,139.4
			c-0.04,0.02-0.08,0.04-0.12,0.06c-0.38,2.09-0.56,4.25-0.87,6.37c-0.37,2.66-0.83,5.3-1.09,8.01c-0.52,5.4-0.82,10.85-0.82,16.38
			c0,5.52,0.31,10.97,0.82,16.36c0.27,2.81,0.74,5.55,1.14,8.33c0.29,2.03,0.47,4.09,0.83,6.1c0.03,0.02,0.07,0.04,0.11,0.06
			c12.76,70.84,68.54,126.61,139.38,139.37c0.02,0.03,0.04,0.07,0.06,0.12c2.12,0.38,4.3,0.57,6.44,0.88
			c2.66,0.37,5.28,0.82,7.98,1.08c5.39,0.52,10.83,0.82,16.36,0.82c0.17,0,0.34,0,0.51,0v-1.64v-38.71c-0.17,0-0.34,0.02-0.51,0.02
			c-7.73,0-15.28-0.8-22.67-2.08c-5.68-17.39-10.88-40.26-14.14-68.56c11.92,0.74,24.21,1.15,36.8,1.15c0.17,0,0.34,0,0.51,0v-23.06
			c-0.17,0-0.33,0.02-0.51,0.02c-13.82,0-26.8-0.46-38.96-1.29c-0.82-12.17-1.29-25.16-1.29-38.98c0-13.82,0.46-26.81,1.28-38.97
			c12.17-0.82,25.15-1.29,38.97-1.29c13.8,0,26.77,0.46,38.92,1.28c0.05,0.71,0.12,1.36,0.16,2.08c3.53,1.26,6.85,3.18,9.72,5.82
			l14.2,13.03c-0.19-6.38-0.57-12.58-0.95-18.77c28.35,3.25,51.25,8.46,68.66,14.15c1.29,7.39,2.09,14.93,2.09,22.67
			c0,7.71-0.73,15.26-2.01,22.61c-5.46,1.79-11.29,3.55-17.83,5.21l13.57,12.45l0,0l31.97,29.34c5.38-12.24,9.2-25.26,11.65-38.78
			c0.05-0.02,0.12-0.05,0.17-0.08C572.15,429.77,572.34,427.5,572.65,425.28z M352.44,277.9c-4.92,18.51-8.75,39.87-11.21,63.15
			c-23.27,2.45-44.62,6.28-63.14,11.2C291.59,318.39,318.58,291.39,352.44,277.9z M352.43,524.53
			c-33.85-13.49-60.84-40.48-74.33-74.33c18.51,4.91,39.86,8.75,63.13,11.2C343.68,484.68,347.51,506.02,352.43,524.53z
			 M339.27,438.04c-28.31-3.25-51.17-8.46-68.57-14.15c-1.28-7.39-2.08-14.93-2.08-22.68c0-7.73,0.8-15.28,2.08-22.67
			c17.4-5.67,40.26-10.88,68.57-14.14c-0.74,11.92-1.16,24.21-1.16,36.8C338.11,413.82,338.53,426.11,339.27,438.04z M401.41,337.93
			c-12.6,0-24.88,0.41-36.8,1.15c3.25-28.31,8.46-51.17,14.14-68.58c7.39-1.28,14.93-2.08,22.67-2.08c7.73,0,15.28,0.8,22.65,2.08
			c5.67,17.4,10.88,40.27,14.14,68.58C426.29,338.34,414.01,337.93,401.41,337.93z M461.52,341.03
			c-2.45-23.29-6.26-44.64-11.18-63.16c33.88,13.48,60.9,40.49,74.4,74.37C506.2,347.31,484.83,343.48,461.52,341.03z"/>
	</g>
	<g>
		<polygon points="419.9,380.53 419.9,565.02 467.37,517.56 501.86,584.04 526.89,571.07 493.7,507.09 557.81,507.09 		"/>
		<path d="M561.83,414.45c0.34-2.43,0.75-4.83,0.99-7.28c0.54-5.53,0.88-11.12,0.88-16.78c0-5.53-0.31-10.97-0.82-16.36
			c-0.26-2.85-0.75-5.63-1.15-8.44c-0.3-1.98-0.47-3.99-0.81-5.96c-0.03-0.02-0.07-0.04-0.11-0.05
			c-12.75-70.87-68.53-126.64-139.39-139.41c-0.02-0.03-0.04-0.08-0.06-0.13c-2.26-0.4-4.58-0.61-6.87-0.93
			c-2.49-0.34-4.96-0.77-7.47-1.01c-5.41-0.52-10.88-0.82-16.43-0.82c-5.55,0-11.02,0.31-16.43,0.82c-2.53,0.24-4.98,0.68-7.48,1.01
			c-2.29,0.32-4.61,0.53-6.87,0.93c-0.02,0.04-0.05,0.08-0.07,0.13c-70.85,12.76-126.64,68.54-139.39,139.4
			c-0.04,0.02-0.08,0.04-0.12,0.06c-0.37,2.09-0.56,4.25-0.87,6.37c-0.38,2.67-0.83,5.3-1.09,8.01c-0.52,5.4-0.82,10.85-0.82,16.38
			c0,5.52,0.31,10.97,0.82,16.36c0.26,2.81,0.74,5.55,1.14,8.33c0.29,2.03,0.47,4.09,0.83,6.1c0.03,0.02,0.07,0.04,0.11,0.06
			c12.76,70.84,68.53,126.61,139.38,139.37c0.02,0.03,0.04,0.07,0.06,0.12c2.12,0.38,4.3,0.57,6.44,0.88
			c2.66,0.37,5.28,0.82,7.98,1.08c5.39,0.52,10.84,0.82,16.36,0.82c0.18,0,0.35,0,0.52,0v-1.64v-38.71c-0.17,0-0.34,0.02-0.52,0.02
			c-7.75,0-15.28-0.8-22.67-2.08c-5.68-17.39-10.88-40.26-14.14-68.57c11.92,0.75,24.21,1.16,36.8,1.16c0.18,0,0.35,0,0.52,0v-23.06
			c-0.17,0-0.34,0.02-0.52,0.02c-13.82,0-26.8-0.46-38.96-1.29c-0.82-12.17-1.29-25.16-1.29-38.98c0-13.82,0.46-26.81,1.28-38.97
			c12.17-0.82,25.15-1.29,38.97-1.29c13.8,0,26.77,0.46,38.92,1.28c0.04,0.71,0.12,1.37,0.17,2.08c3.52,1.26,6.85,3.18,9.71,5.82
			l14.19,13.03c-0.19-6.38-0.55-12.58-0.94-18.78c28.35,3.27,51.26,8.47,68.67,14.16c1.27,7.39,2.07,14.93,2.07,22.67
			c0,7.71-0.72,15.26-2,22.61c-5.46,1.79-11.27,3.55-17.83,5.21l13.57,12.45l0,0L549.09,460c5.38-12.24,9.21-25.26,11.66-38.78
			c0.05-0.03,0.12-0.05,0.17-0.08C561.31,418.94,561.52,416.67,561.83,414.45z M341.61,267.07c-4.92,18.51-8.75,39.87-11.21,63.15
			c-23.27,2.45-44.62,6.28-63.14,11.2C280.76,307.56,307.75,280.56,341.61,267.07z M341.59,513.7
			c-33.85-13.49-60.84-40.48-74.33-74.34c18.51,4.92,39.86,8.76,63.13,11.21C332.85,473.84,336.68,495.19,341.59,513.7z
			 M328.44,427.21c-28.31-3.25-51.17-8.46-68.57-14.14c-1.28-7.4-2.08-14.94-2.08-22.69c0-7.73,0.8-15.28,2.08-22.67
			c17.4-5.67,40.26-10.88,68.57-14.14c-0.74,11.92-1.16,24.21-1.16,36.8C327.28,402.98,327.7,415.27,328.44,427.21z M390.58,327.1
			c-12.6,0-24.88,0.41-36.8,1.15c3.25-28.31,8.46-51.17,14.14-68.58c7.38-1.28,14.92-2.08,22.67-2.08c7.73,0,15.27,0.8,22.65,2.08
			c5.67,17.4,10.88,40.27,14.14,68.58C415.44,327.51,403.17,327.1,390.58,327.1z M450.68,330.2c-2.46-23.29-6.27-44.64-11.19-63.16
			c33.89,13.48,60.91,40.49,74.41,74.37C495.37,336.48,473.98,332.65,450.68,330.2z"/>
	</g>
	<g id="Photo_-_Orange">
		<g>
			<g>
				
					<radialGradient id="SVGID_3_" cx="383.452" cy="637.5078" r="353.8795" gradientTransform="matrix(1 0 0 1 -4.000000e-04 0)" gradientUnits="userSpaceOnUse">
					<stop  offset="0" style="stop-color:#FFF584"/>
					<stop  offset="1" style="stop-color:#FDBF0F"/>
				</radialGradient>
				<circle class="st2" cx="384.15" cy="391.61" r="343.16"/>
				<g>
					<path class="st3" d="M384.15,53.9c186.21,0,337.71,151.5,337.71,337.71s-151.5,337.71-337.71,337.71S46.44,577.82,46.44,391.61
						S197.94,53.9,384.15,53.9 M384.15,43c-192.54,0-348.6,156.09-348.6,348.6c0,192.54,156.07,348.6,348.6,348.6
						c192.51,0,348.6-156.07,348.6-348.6C732.76,199.09,576.67,43,384.15,43L384.15,43z"/>
				</g>
			</g>
			<g class="st4">
				<linearGradient id="SVGID_4_" gradientUnits="userSpaceOnUse" x1="374.283" y1="269.0768" x2="554.8768" y2="961.1837">
					<stop  offset="0" style="stop-color:#FFFFFF"/>
					<stop  offset="1" style="stop-color:#FBAE17"/>
				</linearGradient>
				<path class="st5" d="M617.26,147.6c57.96,60.66,93.68,142.77,93.68,233.11c0,186.22-151.47,337.71-337.69,337.71
					c-90.34,0-172.45-35.72-233.11-93.7c61.53,64.38,148.13,104.6,244,104.6c186.22,0,337.71-151.47,337.71-337.71
					C721.86,295.73,681.63,209.14,617.26,147.6z"/>
			</g>
			<g>
				<g>
					<linearGradient id="SVGID_5_" gradientUnits="userSpaceOnUse" x1="291.952" y1="56.1866" x2="416.561" y2="509.5287">
						<stop  offset="0" style="stop-color:#FFFBD4"/>
						<stop  offset="1" style="stop-color:#000000"/>
					</linearGradient>
					<path class="st6" d="M300.85,453.74C419.32,351.78,572.65,256.6,704.78,328.37c-29.55-150.05-162.07-263.6-320.62-263.6
						c-180.22,0-326.82,146.64-326.82,326.86c0,43.66,8.66,85.32,24.28,123.43C133.45,528.1,214.06,528.46,300.85,453.74z"/>
				</g>
			</g>
			<g>
				<linearGradient id="SVGID_6_" gradientUnits="userSpaceOnUse" x1="233.4206" y1="-4.4679" x2="465.3164" y2="668.0148">
					<stop  offset="0" style="stop-color:#FFFFFF"/>
					<stop  offset="1" style="stop-color:#000000"/>
				</linearGradient>
				<path class="st7" d="M79.15,413.44c0-180.22,146.6-326.86,326.82-326.86c84.56,0,161.73,32.3,219.81,85.19
					c-59.83-65.7-146-107-241.62-107c-180.22,0-326.82,146.64-326.82,326.86c0,95.64,41.3,181.81,107,241.64
					C111.44,575.16,79.15,498.01,79.15,413.44z"/>
			</g>
		</g>
		<linearGradient id="SVGID_7_" gradientUnits="userSpaceOnUse" x1="395.0577" y1="547.6323" x2="395.0577" y2="237.5621">
			<stop  offset="0" style="stop-color:#FFFFFF"/>
			<stop  offset="1" style="stop-color:#FBAE17"/>
		</linearGradient>
		<path class="st8" d="M543.1,287.78l-24.51-34.32c-7.98-10.05-18.08-15.25-30.88-15.88h-36.2c-12.81,0.64-22.89,5.83-30.87,15.88
			l-23.72,33.19H258.38c-32.67,0-59.42,26.75-59.42,59.42v142.6c0,32.69,26.75,59.42,59.42,59.42h273.35
			c32.67,0,59.42-26.72,59.42-59.42v-142.6C591.15,317.29,570.38,293.13,543.1,287.78z M444.8,270.71
			c-0.02-0.04,1.36-1.42,3.09-2.24c1.64-0.9,3.59-1.25,3.62-1.2h36.2c0.02-0.04,1.95,0.3,3.61,1.2c1.73,0.82,3.1,2.21,3.09,2.24
			l11.38,15.94h-72.36L444.8,270.71z M383.08,500.05c-46.66,0-84.62-37.95-84.62-84.61s37.96-84.61,84.62-84.61
			c46.63,0,84.61,37.95,84.61,84.61S429.71,500.05,383.08,500.05z M234.62,488.66v-142.6c0-12.89,10.89-23.77,23.77-23.77h39.75
			c-25.3,23.07-41.28,56.2-41.28,93.14c0,38.99,17.7,73.84,45.5,96.99h-43.97C245.51,512.43,234.62,501.56,234.62,488.66z
			 M555.5,488.66c0,12.89-10.89,23.77-23.77,23.77h-67.95c27.79-23.15,45.48-58,45.48-96.99c0-36.94-15.97-70.07-41.27-93.14h63.74
			c12.87,0,23.77,10.87,23.77,23.77V488.66z"/>
		<path d="M532.2,276.87l-24.51-34.32c-7.98-10.05-18.08-15.24-30.88-15.88h-36.2c-12.81,0.64-22.89,5.83-30.87,15.88L386,275.74
			H247.48c-32.67,0-59.42,26.74-59.42,59.42v142.6c0,32.69,26.75,59.42,59.42,59.42h273.35c32.67,0,59.42-26.72,59.42-59.42v-142.6
			C580.24,306.38,559.48,282.22,532.2,276.87z M433.9,259.81c-0.02-0.04,1.36-1.43,3.09-2.25c1.64-0.9,3.59-1.24,3.62-1.2h36.2
			c0.02-0.04,1.95,0.3,3.61,1.2c1.73,0.82,3.1,2.21,3.09,2.25l11.38,15.94h-72.36L433.9,259.81z M372.17,489.14
			c-46.66,0-84.62-37.95-84.62-84.61c0-46.66,37.96-84.61,84.62-84.61c46.63,0,84.61,37.95,84.61,84.61
			C456.78,451.19,418.8,489.14,372.17,489.14z M223.71,477.76v-142.6c0-12.89,10.89-23.77,23.77-23.77h39.75
			c-25.3,23.07-41.28,56.2-41.28,93.14c0,38.99,17.7,73.84,45.5,96.99h-43.97C234.61,501.52,223.71,490.65,223.71,477.76z
			 M544.59,477.76c0,12.89-10.89,23.77-23.77,23.77h-67.95c27.78-23.15,45.48-58,45.48-96.99c0-36.94-15.97-70.07-41.27-93.14h63.74
			c12.87,0,23.77,10.87,23.77,23.77V477.76z"/>
	</g>
</g>
</svg>
